<svg width="31" height="31" viewBox="0 0 31 31" fill="none" xmlns="http://www.w3.org/2000/svg">
<g id="Group 3518">
<path id="Vector 202" d="M21.7325 21.7017L22.2327 20.7015L8.23267 17.2015L7.45427 22.9809L21.7325 21.7017Z" fill="#D50013"/>
<path id="Vector 201" d="M13.1054 11.1678L21.3648 7.70418C22.2035 7.35246 23.0382 8.21221 22.6619 9.04018L18.5695 18.0434C18.4695 18.2635 18.293 18.4399 18.0729 18.5399L9.27228 22.5402C8.41958 22.9278 7.54974 22.0355 7.95897 21.193L12.5926 11.6531C12.6989 11.4343 12.8812 11.2618 13.1054 11.1678Z" stroke="#757575" stroke-linejoin="round"/>
<path id="Vector 200" d="M8.51483 8.48523L21.9499 21.9203" stroke="#757575" stroke-linejoin="round"/>
<path id="Vector 199" d="M21.8557 7.50917L9.37619 8.4223C8.88145 8.4585 8.48803 8.85192 8.45183 9.34666L7.53869 21.8262C7.49416 22.4348 8.00039 22.9411 8.609 22.8965L21.0886 21.9834C21.5833 21.9472 21.9767 21.5538 22.0129 21.059L22.926 8.57947C22.9706 7.97087 22.4643 7.46463 21.8557 7.50917Z" stroke="#757575" stroke-linejoin="round"/>
</g>
</svg>
