<svg width="18" height="18" viewBox="0 0 18 18" fill="none" xmlns="http://www.w3.org/2000/svg">
<g id="Group 3529">
<g id="Group 3527">
<path id="Rectangle 234" d="M1.80005 1C1.80005 0.447715 2.24776 0 2.80005 0H15.2C15.7523 0 16.2 0.447715 16.2 1V2C16.2 2.55228 15.7523 3 15.2 3H2.80005C2.24776 3 1.80005 2.55228 1.80005 2V1Z" fill="#D50013"/>
<path id="Rectangle 237" d="M1.40002 16.405C1.40002 15.8003 1.89024 15.3101 2.49495 15.3101H15.5051C16.1098 15.3101 16.6 15.8003 16.6 16.405C16.6 17.0097 16.1098 17.4999 15.5051 17.4999H2.49495C1.89024 17.4999 1.40002 17.0097 1.40002 16.405Z" stroke="#757575"/>
<path id="Rectangle 235" d="M2.25 3.64586V15.0381H15.75V3.64575" stroke="#757575" stroke-linecap="round"/>
<path id="Line 32" d="M13.5 5.24048L7.2 5.24048" stroke="#757575" stroke-linecap="round"/>
<path id="Line 34" d="M10.8 9.79761H4.50005" stroke="#757575" stroke-linecap="round"/>
<path id="Line 36" d="M13.5 9.79761H12.6" stroke="#757575" stroke-linecap="round"/>
<path id="Line 37" d="M5.40002 5.24048H4.50002" stroke="#757575" stroke-linecap="round"/>
<path id="Line 33" d="M13.5 7.51904L4.5 7.51904" stroke="#757575" stroke-linecap="round"/>
<path id="Line 35" d="M13.5 12.5315L4.5 12.5315" stroke="#757575" stroke-linecap="round"/>
<path id="Rectangle 244" d="M17.5 16.405C17.5 16.6114 17.3481 16.7822 17.15 16.8119L17.15 15.9982C17.3481 16.0278 17.5 16.1987 17.5 16.405Z" stroke="#757575"/>
<path id="Rectangle 245" d="M0.5 16.4048C0.5 16.1985 0.651914 16.0276 0.849999 15.998L0.849999 16.8116C0.651914 16.782 0.5 16.6111 0.5 16.4048Z" stroke="#757575"/>
<path id="Rectangle 248" d="M16.7682 1.44985C16.7682 1.14626 17.0143 0.900146 17.3179 0.900146C17.6215 0.900146 17.8676 1.14626 17.8676 1.44985V2.01613C17.8676 2.31973 17.6215 2.56584 17.3179 2.56584C17.0143 2.56584 16.7682 2.31973 16.7682 2.01613V1.44985Z" fill="#D50013"/>
<path id="Rectangle 249" d="M0.0461177 1.46769C0.0461314 1.15424 0.300238 0.900146 0.61369 0.900146C0.927152 0.900146 1.18126 1.15426 1.18126 1.46772V1.93242C1.18126 2.24588 0.927147 2.5 0.61368 2.5C0.300203 2.5 0.0460835 2.24587 0.0460972 1.93239L0.0461177 1.46769Z" fill="#D50013"/>
</g>
</g>
</svg>
