<svg width="20" height="20" viewBox="0 0 20 20" fill="none" xmlns="http://www.w3.org/2000/svg">
<g id="Group 3521">
<path id="Vector" d="M6.15682 2.3092V1H1.00994C1.00355 1.14534 1 1.29126 1 1.43717C1 5.74845 5.74394 10.564 10 12.5714" stroke="#757575" stroke-miterlimit="10" stroke-linecap="round" stroke-linejoin="round"/>
<path id="Vector_2" d="M13.8432 2.3092V1H18.9901C18.9964 1.14534 19 1.29126 19 1.43717C19 5.74845 14.2561 10.564 10 12.5714" stroke="#757575" stroke-miterlimit="10" stroke-linecap="round" stroke-linejoin="round"/>
<path id="Vector_3" d="M13.375 17.4586C12.8928 16.7579 12.0663 16.4286 12.0663 16.4286H9.99997H7.93364C7.93364 16.4286 7.10711 16.7579 6.62497 17.4586C6.14282 18.1592 6.14282 19 6.14282 19H9.99997H13.8571C13.8571 19 13.8571 18.1592 13.375 17.4586Z" stroke="#757575" stroke-miterlimit="10"/>
<path id="Vector 135" d="M10 12.5714L10 16.4286" stroke="#757575" stroke-linejoin="round"/>
<path id="Vector_4" d="M12 7.50012L6.5 10.0001C7 10.5001 9 12.0001 9.99979 12.5713C9.99979 12.5713 15.1426 9.8106 15.1426 7.16029C15.1426 4.50998 15.1426 6.00012 15.1426 6.00012L12 7.50012Z" fill="#D50013"/>
<path id="Vector_5" d="M10 3.57141H4.85718C4.85718 3.57141 4.85718 4.51006 4.85718 7.16037C4.85718 9.81067 10 12.5714 10 12.5714C10 12.5714 15.1429 9.81067 15.1429 7.16037C15.1429 4.51006 15.1429 3.57141 15.1429 3.57141H10Z" stroke="#757575" stroke-miterlimit="10"/>
</g>
</svg>
