<svg width="21" height="22" viewBox="0 0 21 22" fill="none" xmlns="http://www.w3.org/2000/svg">
<g id="&#208;&#161;&#208;&#187;&#208;&#190;&#208;&#185; 5">
<path id="Vector" d="M19.9921 8.76864C19.9921 14.4368 16.0164 19.2623 10.5025 21C3.15847 18.9192 -1.15643 10.5437 2.10144 3.80897C4.83079 4.09984 9.65843 4.36087 10.3526 1.042C10.3605 0.982333 10.4473 0.989792 10.4552 1.042C10.9916 4.38325 16.1268 4.09984 18.9114 3.80151C19.6056 5.32298 20 7.00852 20 8.76118L19.9921 8.76864Z" stroke="#757575" stroke-miterlimit="10"/>
<g id="Group 3508">
<path id="Vector_2" d="M6 11V7L9 10.4048V12L7 14L6 11Z" fill="#D50013"/>
<path id="Vector_3" d="M14 16C13.6572 15.6093 6.06855 7.07235 6 7" stroke="#757575" stroke-miterlimit="10" stroke-linecap="round"/>
</g>
<g id="Group 3509">
<path id="Vector_4" d="M15 11V7L12 10.4048V12L14 14L15 11Z" fill="#D50013"/>
<path id="Vector_5" d="M7 16C7.34276 15.6093 14.9314 7.07235 15 7" stroke="#757575" stroke-miterlimit="10" stroke-linecap="round"/>
</g>
</g>
</svg>
