<svg width="22" height="22" viewBox="0 0 22 22" fill="none" xmlns="http://www.w3.org/2000/svg">
<path d="M3.80005 3C3.80005 2.44772 4.24776 2 4.80005 2H17.2C17.7523 2 18.2 2.44772 18.2 3V4C18.2 4.55228 17.7523 5 17.2 5H4.80005C4.24776 5 3.80005 4.55228 3.80005 4V3Z" fill="#D50013"/>
<path d="M3.40002 18.405C3.40002 17.8003 3.89024 17.3101 4.49495 17.3101H17.5051C18.1098 17.3101 18.6 17.8003 18.6 18.405C18.6 19.0097 18.1098 19.4999 17.5051 19.4999H4.49495C3.89024 19.4999 3.40002 19.0097 3.40002 18.405Z" stroke="#757575"/>
<path d="M4.25 5.64586V17.0381H17.75V5.64575" stroke="#757575" stroke-linecap="round"/>
<path d="M15.5 7.24048L9.2 7.24048" stroke="#757575" stroke-linecap="round"/>
<path d="M12.8 11.7976H6.50005" stroke="#757575" stroke-linecap="round"/>
<path d="M15.5 11.7976H14.6" stroke="#757575" stroke-linecap="round"/>
<path d="M7.40002 7.24048H6.50002" stroke="#757575" stroke-linecap="round"/>
<path d="M15.5 9.51904L6.5 9.51904" stroke="#757575" stroke-linecap="round"/>
<path d="M15.5 14.5315L6.5 14.5315" stroke="#757575" stroke-linecap="round"/>
<path d="M19.5 18.405C19.5 18.6114 19.3481 18.7822 19.15 18.8119L19.15 17.9982C19.3481 18.0278 19.5 18.1987 19.5 18.405Z" stroke="#757575"/>
<path d="M2.5 18.4048C2.5 18.1985 2.65191 18.0276 2.85 17.998V18.8116C2.65191 18.782 2.5 18.6111 2.5 18.4048Z" stroke="#757575"/>
<path d="M18.7682 3.44985C18.7682 3.14626 19.0143 2.90015 19.3179 2.90015C19.6215 2.90015 19.8676 3.14626 19.8676 3.44985V4.01613C19.8676 4.31973 19.6215 4.56584 19.3179 4.56584C19.0143 4.56584 18.7682 4.31973 18.7682 4.01613V3.44985Z" fill="#D50013"/>
<path d="M2.04612 3.46769C2.04613 3.15424 2.30024 2.90015 2.61369 2.90015C2.92715 2.90015 3.18126 3.15426 3.18126 3.46772V3.93242C3.18126 4.24588 2.92715 4.5 2.61368 4.5C2.3002 4.5 2.04608 4.24587 2.0461 3.93239L2.04612 3.46769Z" fill="#D50013"/>
</svg>
