<svg width="22" height="22" viewBox="0 0 22 22" fill="none" xmlns="http://www.w3.org/2000/svg">
<path d="M17.7325 17.7017L18.2327 16.7015L4.23267 13.2015L3.45427 18.9809L17.7325 17.7017Z" fill="#D50013"/>
<path d="M9.10541 7.16779L17.3648 3.70418C18.2035 3.35246 19.0382 4.21221 18.6619 5.04018L14.5695 14.0434C14.4695 14.2635 14.293 14.4399 14.0729 14.5399L5.27228 18.5402C4.41958 18.9278 3.54974 18.0355 3.95897 17.193L8.59263 7.65308C8.69887 7.43435 8.88117 7.26183 9.10541 7.16779Z" stroke="#757575" stroke-linejoin="round"/>
<path d="M4.51483 4.48523L17.9499 17.9203" stroke="#757575" stroke-linejoin="round"/>
<path d="M17.8557 3.50917L5.37619 4.4223C4.88145 4.4585 4.48803 4.85192 4.45183 5.34666L3.53869 17.8262C3.49416 18.4348 4.00039 18.9411 4.609 18.8965L17.0886 17.9834C17.5833 17.9472 17.9767 17.5538 18.0129 17.059L18.926 4.57947C18.9706 3.97087 18.4643 3.46463 17.8557 3.50917Z" stroke="#757575" stroke-linejoin="round"/>
</svg>
