<svg width="32" height="32" viewBox="0 0 32 32" fill="none" xmlns="http://www.w3.org/2000/svg">
<path fill-rule="evenodd" clip-rule="evenodd" d="M16 30.5C24.0081 30.5 30.5 24.0081 30.5 16C30.5 7.99187 24.0081 1.5 16 1.5C7.99187 1.5 1.5 7.99187 1.5 16C1.5 24.0081 7.99187 30.5 16 30.5ZM16 32C24.8366 32 32 24.8366 32 16C32 7.16344 24.8366 0 16 0C7.16344 0 0 7.16344 0 16C0 24.8366 7.16344 32 16 32ZM16.75 12.8107L20.4697 16.5303L21.5303 15.4697L16.5303 10.4697L16 9.93934L15.4697 10.4697L10.4697 15.4697L11.5303 16.5303L15.25 12.8107V21H16.75V12.8107Z" fill="white"/>
<path fill-rule="evenodd" clip-rule="evenodd" d="M16 30.5C24.0081 30.5 30.5 24.0081 30.5 16C30.5 7.99187 24.0081 1.5 16 1.5C7.99187 1.5 1.5 7.99187 1.5 16C1.5 24.0081 7.99187 30.5 16 30.5ZM16 32C24.8366 32 32 24.8366 32 16C32 7.16344 24.8366 0 16 0C7.16344 0 0 7.16344 0 16C0 24.8366 7.16344 32 16 32ZM16.75 12.8107L20.4697 16.5303L21.5303 15.4697L16.5303 10.4697L16 9.93934L15.4697 10.4697L10.4697 15.4697L11.5303 16.5303L15.25 12.8107V21H16.75V12.8107Z" fill="white"/>
</svg>
