<svg width="12" height="12" viewBox="0 0 12 12" fill="none" xmlns="http://www.w3.org/2000/svg">
<circle cx="6" cy="6" r="6" fill="#0088CC"/>
<path d="M9.609 4.42697L6.33975 9.63309C6.29985 9.69627 6.24455 9.74829 6.17905 9.78426C6.11355 9.82023 6.03998 9.83899 5.96526 9.83876C5.89053 9.83854 5.81708 9.81934 5.75179 9.78297C5.68651 9.74661 5.63153 9.69426 5.592 9.63084L2.38688 4.42509C2.29701 4.27908 2.24961 4.11092 2.25 3.93947C2.25415 3.6866 2.35841 3.4457 2.53992 3.26961C2.72143 3.09351 2.96538 2.99658 3.21825 3.00009H8.78625C9.31763 3.00009 9.75 3.41897 9.75 3.93759C9.75 4.10934 9.70125 4.27922 9.60863 4.42697M3.17363 4.25297L5.55863 7.93022V3.88209H3.423C3.17625 3.88209 3.06563 4.04559 3.174 4.25297M6.441 7.93022L8.826 4.25297C8.93588 4.04559 8.82338 3.88209 8.57663 3.88209H6.441V7.93022Z" fill="white"/>
</svg>
