<svg width="15" height="14" viewBox="0 0 15 14" fill="none" xmlns="http://www.w3.org/2000/svg">
<circle cx="7.5" cy="7" r="6.5" stroke="#6A6D74"/>
<path d="M8.58036 2.35409L4.58325 7.99992H6.91659L6.34218 11.6089C6.34109 11.616 6.34137 11.6232 6.343 11.6302C6.34463 11.6371 6.34758 11.6436 6.35163 11.6491C6.35568 11.6546 6.36073 11.659 6.36644 11.662C6.37215 11.665 6.37837 11.6666 6.38466 11.6666C6.39135 11.6666 6.39795 11.6648 6.40393 11.6613C6.40991 11.6579 6.41511 11.6529 6.41911 11.6468L10.4166 5.99992H8.08325L8.66039 2.39054C8.66116 2.38335 8.66059 2.37606 8.65871 2.36914C8.65683 2.36222 8.65368 2.35584 8.64947 2.35042C8.64526 2.345 8.64009 2.34066 8.63431 2.3377C8.62852 2.33475 8.62225 2.33323 8.61591 2.33325C8.60897 2.33328 8.60213 2.33519 8.59595 2.33881C8.58978 2.34243 8.58443 2.34766 8.58036 2.35409Z" fill="#6E6A70"/>
</svg>
