<svg width="22" height="22" viewBox="0 0 22 22" fill="none" xmlns="http://www.w3.org/2000/svg">
<circle cx="11" cy="11" r="10" stroke="#E9EAEE"/>
<path d="M10.233 13.5455V13.4943C10.2386 12.9517 10.2955 12.5199 10.4034 12.1989C10.5114 11.8778 10.6648 11.6179 10.8636 11.419C11.0625 11.2202 11.3011 11.0369 11.5795 10.8693C11.7472 10.767 11.8977 10.6463 12.0312 10.5071C12.1648 10.3651 12.2699 10.2017 12.3466 10.017C12.4261 9.83239 12.4659 9.62784 12.4659 9.40341C12.4659 9.125 12.4006 8.88352 12.2699 8.67898C12.1392 8.47443 11.9645 8.31676 11.7457 8.20597C11.527 8.09517 11.2841 8.03977 11.017 8.03977C10.7841 8.03977 10.5597 8.08807 10.3438 8.18466C10.1278 8.28125 9.94744 8.43324 9.80256 8.64062C9.65767 8.84801 9.57386 9.11932 9.55114 9.45455H8.47727C8.5 8.97159 8.625 8.55824 8.85227 8.21449C9.08239 7.87074 9.38494 7.60795 9.75994 7.42614C10.1378 7.24432 10.5568 7.15341 11.017 7.15341C11.517 7.15341 11.9517 7.25284 12.321 7.4517C12.6932 7.65057 12.9801 7.9233 13.1818 8.26989C13.3864 8.61648 13.4886 9.01136 13.4886 9.45455C13.4886 9.76705 13.4403 10.0497 13.3438 10.3026C13.25 10.5554 13.1136 10.7812 12.9347 10.9801C12.7585 11.179 12.5455 11.3551 12.2955 11.5085C12.0455 11.6648 11.8452 11.8295 11.6946 12.0028C11.544 12.1733 11.4347 12.3764 11.3665 12.6122C11.2983 12.848 11.2614 13.142 11.2557 13.4943V13.5455H10.233ZM10.7784 16.0682C10.5682 16.0682 10.3878 15.9929 10.2372 15.8423C10.0866 15.6918 10.0114 15.5114 10.0114 15.3011C10.0114 15.0909 10.0866 14.9105 10.2372 14.7599C10.3878 14.6094 10.5682 14.5341 10.7784 14.5341C10.9886 14.5341 11.169 14.6094 11.3196 14.7599C11.4702 14.9105 11.5455 15.0909 11.5455 15.3011C11.5455 15.4403 11.5099 15.5682 11.4389 15.6847C11.3707 15.8011 11.2784 15.8949 11.1619 15.9659C11.0483 16.0341 10.9205 16.0682 10.7784 16.0682Z" fill="#E9EAEE"/>
</svg>
