<svg width="62" height="12" viewBox="0 0 62 12" fill="none" xmlns="http://www.w3.org/2000/svg">
<path d="M10.487 0C10.487 0 10.487 2.90076 10.487 2.9035C10.487 2.90625 3.90519 2.9035 3.90519 2.9035V4.57704H7.17338V3.62957H10.487V12H7.17338V7.53814H1.99879L0.400024 5.91323V1.56009L1.94187 0H10.487Z" fill="#D50013"/>
<path d="M11.4956 12H14.8652V7.53814H16.4552L18.1742 12H22.0869L20.1969 7.53814L21.5731 5.91323V1.56009L19.8967 0H11.4956V2.90351H18.0926V4.47731H14.8652V3.62957H11.4956V12Z" fill="#D50013"/>
<path d="M33.4706 4.74538H32.3304V0.194105H34.3399C34.7912 0.194105 35.1523 0.249228 35.4231 0.359475C35.6939 0.469721 35.8886 0.649471 36.0074 0.898725C36.1262 1.14798 36.1855 1.48591 36.1855 1.91252C36.1855 2.31516 36.1262 2.6435 36.0074 2.89755C35.8886 3.1468 35.6939 3.33134 35.4231 3.45118C35.1523 3.57101 34.7912 3.63093 34.3399 3.63093H33.4706V4.74538ZM34.1547 1.13599H33.4706V2.68904H34.1547C34.492 2.68904 34.7176 2.63152 34.8316 2.51648C34.9456 2.40144 35.0026 2.20012 35.0026 1.91252C35.0026 1.6393 34.9456 1.44277 34.8316 1.32293C34.7176 1.19831 34.492 1.13599 34.1547 1.13599Z" fill="#E9EAEE"/>
<path d="M37.9312 4.74538H36.7911V0.194105H38.9431C39.5084 0.194105 39.9193 0.323525 40.1759 0.582365C40.4371 0.836412 40.5678 1.21269 40.5678 1.7112C40.5678 2.08508 40.4752 2.40623 40.2899 2.67466C40.1046 2.93829 39.86 3.10366 39.5559 3.17077L39.5488 3.19234C39.6676 3.26903 39.7982 3.39605 39.9407 3.57341C40.0832 3.75076 40.2234 3.94489 40.3611 4.1558C40.5037 4.36191 40.6295 4.55604 40.7388 4.73819V4.74538H39.4134L38.6438 3.59498C38.5773 3.49432 38.5227 3.42242 38.4799 3.37928C38.4419 3.33614 38.3944 3.30977 38.3374 3.30019C38.2851 3.2906 38.1996 3.28581 38.0809 3.28581H37.9312V4.74538ZM38.7578 1.1288H37.9312V2.35111H38.7578C38.9953 2.35111 39.1592 2.30317 39.2495 2.20731C39.3445 2.11144 39.392 1.95566 39.392 1.73996C39.392 1.52426 39.3445 1.36847 39.2495 1.2726C39.1592 1.17674 38.9953 1.1288 38.7578 1.1288Z" fill="#E9EAEE"/>
<path d="M41.2414 2.46615C41.2414 1.88615 41.3055 1.42599 41.4338 1.08566C41.5668 0.745338 41.7925 0.500878 42.1108 0.352285C42.4338 0.203691 42.8827 0.129395 43.4576 0.129395C43.8899 0.129395 44.2485 0.170138 44.5336 0.251625C44.8186 0.333111 45.0442 0.464928 45.2105 0.647074C45.3768 0.829221 45.4932 1.07129 45.5597 1.37327C45.6309 1.67045 45.6666 2.03475 45.6666 2.46615C45.6666 2.90234 45.6309 3.27143 45.5597 3.57341C45.4932 3.87059 45.3768 4.11026 45.2105 4.29241C45.0442 4.47455 44.8186 4.60637 44.5336 4.68786C44.2485 4.76934 43.8899 4.81009 43.4576 4.81009C43.0252 4.81009 42.6666 4.76934 42.3815 4.68786C42.0965 4.60637 41.8709 4.47455 41.7046 4.29241C41.5383 4.11026 41.4196 3.87059 41.3483 3.57341C41.277 3.27143 41.2414 2.90234 41.2414 2.46615ZM43.4576 3.80349C43.7616 3.80349 43.9896 3.76514 44.1416 3.68845C44.2937 3.61175 44.3958 3.47754 44.448 3.28581C44.5003 3.08928 44.5264 2.81606 44.5264 2.46615C44.5264 2.12103 44.5003 1.8526 44.448 1.66087C44.3958 1.46913 44.2937 1.33492 44.1416 1.25822C43.9896 1.17674 43.7616 1.13599 43.4576 1.13599C43.1583 1.13599 42.9302 1.17674 42.7735 1.25822C42.6214 1.33492 42.5169 1.46913 42.4599 1.66087C42.4077 1.8526 42.3815 2.12103 42.3815 2.46615C42.3815 2.81606 42.4077 3.08928 42.4599 3.28581C42.5169 3.47754 42.6214 3.61175 42.7735 3.68845C42.9302 3.76514 43.1583 3.80349 43.4576 3.80349Z" fill="#E9EAEE"/>
<path d="M46.2379 2.46615C46.2379 1.88615 46.302 1.42599 46.4303 1.08566C46.5633 0.745338 46.7889 0.500878 47.1072 0.352285C47.4303 0.203691 47.8792 0.129395 48.454 0.129395C48.8863 0.129395 49.245 0.170138 49.53 0.251625C49.8151 0.333111 50.0407 0.464928 50.207 0.647074C50.3733 0.829221 50.4896 1.07129 50.5561 1.37327C50.6274 1.67045 50.663 2.03475 50.663 2.46615C50.663 2.90234 50.6274 3.27143 50.5561 3.57341C50.4896 3.87059 50.3733 4.11026 50.207 4.29241C50.0407 4.47455 49.8151 4.60637 49.53 4.68786C49.245 4.76934 48.8863 4.81009 48.454 4.81009C48.0217 4.81009 47.663 4.76934 47.378 4.68786C47.093 4.60637 46.8673 4.47455 46.701 4.29241C46.5348 4.11026 46.416 3.87059 46.3448 3.57341C46.2735 3.27143 46.2379 2.90234 46.2379 2.46615ZM48.454 3.80349C48.7581 3.80349 48.9861 3.76514 49.1381 3.68845C49.2901 3.61175 49.3923 3.47754 49.4445 3.28581C49.4968 3.08928 49.5229 2.81606 49.5229 2.46615C49.5229 2.12103 49.4968 1.8526 49.4445 1.66087C49.3923 1.46913 49.2901 1.33492 49.1381 1.25822C48.9861 1.17674 48.7581 1.13599 48.454 1.13599C48.1547 1.13599 47.9267 1.17674 47.7699 1.25822C47.6179 1.33492 47.5134 1.46913 47.4564 1.66087C47.4041 1.8526 47.378 2.12103 47.378 2.46615C47.378 2.81606 47.4041 3.08928 47.4564 3.28581C47.5134 3.47754 47.6179 3.61175 47.7699 3.68845C47.9267 3.76514 48.1547 3.80349 48.454 3.80349Z" fill="#E9EAEE"/>
<path d="M52.517 4.74538H51.3768V0.194105H54.726V1.1288H52.517V2.17136H54.5835V3.10606H52.517V4.74538Z" fill="#E9EAEE"/>
<path d="M33.4706 11.9354H32.3304V7.38411H34.4825C35.0478 7.38411 35.4587 7.51353 35.7152 7.77237C35.9765 8.02641 36.1072 8.40269 36.1072 8.9012C36.1072 9.27508 36.0145 9.59623 35.8292 9.86466C35.644 10.1283 35.3993 10.2937 35.0953 10.3608L35.0882 10.3823C35.2069 10.459 35.3376 10.5861 35.4801 10.7634C35.6226 10.9408 35.7627 11.1349 35.9005 11.3458C36.043 11.5519 36.1689 11.746 36.2782 11.9282V11.9354H34.9528L34.1832 10.785C34.1167 10.6843 34.062 10.6124 34.0193 10.5693C33.9813 10.5261 33.9338 10.4998 33.8768 10.4902C33.8245 10.4806 33.739 10.4758 33.6202 10.4758H33.4706V11.9354ZM34.2972 8.31881H33.4706V9.54111H34.2972C34.5347 9.54111 34.6986 9.49317 34.7889 9.39731C34.8839 9.30144 34.9314 9.14566 34.9314 8.92996C34.9314 8.71426 34.8839 8.55847 34.7889 8.46261C34.6986 8.36674 34.5347 8.31881 34.2972 8.31881Z" fill="#E9EAEE"/>
<path d="M41.0563 11.9138V11.9354H39.8449C39.8116 11.8203 39.7713 11.6885 39.7238 11.5399C39.681 11.3913 39.6335 11.2332 39.5812 11.0654H38.0421C37.947 11.4009 37.8592 11.6909 37.7784 11.9354H36.567V11.921L38.0278 7.38411H39.5955L41.0563 11.9138ZM38.7974 8.20377C38.7499 8.44823 38.681 8.74541 38.5907 9.09533C38.5005 9.44524 38.4055 9.80235 38.3057 10.1666H39.3247C39.2202 9.80235 39.1228 9.44524 39.0326 9.09533C38.9423 8.74541 38.8734 8.44823 38.8259 8.20377H38.7974Z" fill="#E9EAEE"/>
<path d="M44.4795 7.38411H45.6196V11.9354H44.4866L43.204 10.0085C43.1042 9.85507 43.0211 9.72565 42.9546 9.6202C42.8881 9.51474 42.8263 9.40929 42.7693 9.30384C42.7123 9.19839 42.6482 9.07376 42.5769 8.92996L42.5555 8.95872C42.622 9.1888 42.6624 9.4045 42.6767 9.60582C42.6909 9.80234 42.698 9.99408 42.698 10.181V11.9354H41.5579V7.38411H42.6909L43.9736 9.31103C44.0733 9.45962 44.1565 9.58904 44.223 9.69929C44.2895 9.80474 44.3512 9.9102 44.4082 10.0156C44.4653 10.1211 44.5294 10.2457 44.6006 10.3895L44.622 10.3608C44.5745 10.1594 44.5389 9.96532 44.5151 9.77838C44.4914 9.58665 44.4795 9.39731 44.4795 9.21037V7.38411Z" fill="#E9EAEE"/>
<path d="M47.6179 11.9354H46.4778V7.38411H47.6179V9.28946C47.6274 9.28946 47.6346 9.28946 47.6393 9.28946C47.6868 9.28946 47.7415 9.25111 47.8032 9.17442C47.8697 9.09772 47.9291 9.02103 47.9814 8.94434L48.9362 7.38411H50.1761V7.40568L49.3638 8.72864C49.2925 8.84847 49.2118 8.97789 49.1215 9.1169C49.0312 9.25111 48.941 9.37094 48.8507 9.4764C48.7652 9.57706 48.6892 9.63937 48.6227 9.66334V9.68491C48.6892 9.71367 48.7652 9.77598 48.8507 9.87185C48.941 9.96292 49.0312 10.0708 49.1215 10.1954C49.2165 10.3152 49.3068 10.4351 49.3923 10.5549L50.34 11.9138V11.9354H49.0289L48.1381 10.5549V10.5621C48.1096 10.5142 48.0645 10.4518 48.0027 10.3751C47.9457 10.2937 47.884 10.2194 47.8175 10.1523C47.7557 10.0852 47.7011 10.0516 47.6536 10.0516C47.6441 10.0516 47.637 10.0516 47.6322 10.0516C47.6274 10.0516 47.6227 10.0516 47.6179 10.0516V11.9354Z" fill="#E9EAEE"/>
<path d="M51.9394 11.9354H50.7993V7.38411H51.9394V11.9354Z" fill="#E9EAEE"/>
<path d="M55.7181 7.38411H56.8582V11.9354H55.7252L54.4425 10.0085C54.3428 9.85507 54.2596 9.72565 54.1931 9.6202C54.1266 9.51474 54.0649 9.40929 54.0079 9.30384C53.9508 9.19839 53.8867 9.07376 53.8155 8.92996L53.7941 8.95872C53.8606 9.1888 53.901 9.4045 53.9152 9.60582C53.9295 9.80234 53.9366 9.99408 53.9366 10.181V11.9354H52.7965V7.38411H53.9295L55.2121 9.31103C55.3119 9.45962 55.395 9.58904 55.4615 9.69929C55.528 9.80474 55.5898 9.9102 55.6468 10.0156C55.7038 10.1211 55.7679 10.2457 55.8392 10.3895L55.8606 10.3608C55.8131 10.1594 55.7774 9.96532 55.7537 9.77838C55.7299 9.58665 55.7181 9.39731 55.7181 9.21037V7.38411Z" fill="#E9EAEE"/>
<path d="M60.6024 10.5908C60.6024 10.4327 60.6095 10.2889 60.6237 10.1594L60.6095 10.1379C60.4765 10.1571 60.3316 10.1714 60.1748 10.181C60.018 10.1858 59.8731 10.1858 59.7401 10.181V9.24632L61.6 9.23913V11.6837C61.3814 11.7844 61.132 11.8635 60.8518 11.921C60.5762 11.9737 60.2247 12.0001 59.7971 12.0001C59.2271 12.0001 58.7805 11.9234 58.4575 11.77C58.1344 11.6118 57.9064 11.3602 57.7734 11.0151C57.6404 10.6651 57.5739 10.2002 57.5739 9.6202C57.5739 9.15045 57.6261 8.76459 57.7306 8.46261C57.8399 8.16063 57.9967 7.92815 58.2009 7.76518C58.41 7.59741 58.6641 7.48237 58.9634 7.42006C59.2627 7.35295 59.6047 7.3194 59.9895 7.3194C60.2176 7.3194 60.4456 7.32898 60.6736 7.34816C60.9064 7.36733 61.1368 7.40328 61.3648 7.45601V8.40509L61.3434 8.41947C61.1439 8.37153 60.9444 8.33798 60.7449 8.31881C60.5501 8.29963 60.3529 8.29005 60.1534 8.29005C59.8636 8.29005 59.6095 8.3212 59.391 8.38352C59.1772 8.44104 59.0109 8.56327 58.8921 8.75021C58.7734 8.93715 58.714 9.22714 58.714 9.6202C58.714 10.0085 58.7449 10.3056 58.8066 10.5118C58.8731 10.7131 58.9943 10.8521 59.17 10.9288C59.3506 11.0007 59.6071 11.0366 59.9396 11.0366C59.9824 11.0366 60.0489 11.0366 60.1392 11.0366C60.2294 11.0318 60.3197 11.027 60.41 11.0222C60.5002 11.0175 60.5643 11.0103 60.6024 11.0007V10.5908Z" fill="#E9EAEE"/>
</svg>
