<svg width="275" height="89" viewBox="0 0 275 89" fill="none" xmlns="http://www.w3.org/2000/svg">
<path d="M128.479 73.744C129.887 74.224 131.423 74.608 133.087 74.896C134.783 75.152 136.463 75.28 138.127 75.28C140.399 75.28 142.079 75.184 143.167 74.992C144.287 74.768 145.023 74.432 145.375 73.984C145.727 73.536 145.903 72.96 145.903 72.256C145.903 71.648 145.775 71.168 145.519 70.816C145.263 70.464 144.767 70.192 144.031 70C143.295 69.776 142.207 69.6 140.767 69.472L137.599 69.184C135.231 68.96 133.359 68.464 131.983 67.696C130.639 66.928 129.679 65.904 129.103 64.624C128.559 63.312 128.287 61.744 128.287 59.92C128.287 57.744 128.719 55.984 129.583 54.64C130.479 53.296 131.919 52.32 133.903 51.712C135.887 51.072 138.527 50.752 141.823 50.752C146.111 50.752 149.647 51.312 152.431 52.432L152.287 58.96L152.143 59.152C148.975 58.032 145.663 57.472 142.207 57.472C140.543 57.472 139.263 57.568 138.367 57.76C137.471 57.92 136.847 58.192 136.495 58.576C136.143 58.96 135.967 59.504 135.967 60.208C135.967 60.912 136.079 61.44 136.303 61.792C136.559 62.144 137.055 62.416 137.791 62.608C138.527 62.768 139.599 62.928 141.007 63.088L144.031 63.424C146.591 63.712 148.559 64.224 149.935 64.96C151.311 65.696 152.255 66.688 152.767 67.936C153.311 69.152 153.583 70.64 153.583 72.4C153.583 74.544 153.119 76.336 152.191 77.776C151.295 79.184 149.823 80.24 147.775 80.944C145.727 81.648 142.991 82 139.567 82C137.327 82 135.311 81.888 133.519 81.664C131.727 81.408 129.983 81.072 128.287 80.656V73.888L128.479 73.744ZM164.643 81.568V57.664H156.003V51.184H180.963V57.664H172.323V81.568H164.643ZM183.365 66.352C183.365 62.48 183.797 59.408 184.661 57.136C185.557 54.864 187.077 53.232 189.221 52.24C191.397 51.248 194.421 50.752 198.293 50.752C201.205 50.752 203.621 51.024 205.541 51.568C207.461 52.112 208.981 52.992 210.101 54.208C211.221 55.424 212.005 57.04 212.453 59.056C212.933 61.04 213.173 63.472 213.173 66.352C213.173 69.264 212.933 71.728 212.453 73.744C212.005 75.728 211.221 77.328 210.101 78.544C208.981 79.76 207.461 80.64 205.541 81.184C203.621 81.728 201.205 82 198.293 82C195.381 82 192.965 81.728 191.045 81.184C189.125 80.64 187.605 79.76 186.485 78.544C185.365 77.328 184.565 75.728 184.085 73.744C183.605 71.728 183.365 69.264 183.365 66.352ZM198.293 75.28C200.341 75.28 201.877 75.024 202.901 74.512C203.925 74 204.613 73.104 204.965 71.824C205.317 70.512 205.493 68.688 205.493 66.352C205.493 64.048 205.317 62.256 204.965 60.976C204.613 59.696 203.925 58.8 202.901 58.288C201.877 57.744 200.341 57.472 198.293 57.472C196.277 57.472 194.741 57.744 193.685 58.288C192.661 58.8 191.957 59.696 191.573 60.976C191.221 62.256 191.045 64.048 191.045 66.352C191.045 68.688 191.221 70.512 191.573 71.824C191.957 73.104 192.661 74 193.685 74.512C194.741 75.024 196.277 75.28 198.293 75.28ZM237.662 51.184H245.342V81.568H237.71L229.07 68.704C228.398 67.68 227.838 66.816 227.39 66.112C226.942 65.408 226.526 64.704 226.142 64C225.758 63.296 225.326 62.464 224.846 61.504L224.702 61.696C225.15 63.232 225.422 64.672 225.518 66.016C225.614 67.328 225.662 68.608 225.662 69.856V81.568H217.982V51.184H225.614L234.254 64.048C234.926 65.04 235.486 65.904 235.934 66.64C236.382 67.344 236.798 68.048 237.182 68.752C237.566 69.456 237.998 70.288 238.478 71.248L238.622 71.056C238.302 69.712 238.062 68.416 237.902 67.168C237.742 65.888 237.662 64.624 237.662 63.376V51.184ZM251.122 81.568V51.184H273.682V57.424H258.802V63.184H271.714V69.424H258.802V75.328H273.682V81.568H251.122Z" fill="#E9EAEE"/>
<path d="M127.007 29.176C127.007 27.24 127.223 25.704 127.655 24.568C128.103 23.432 128.863 22.616 129.935 22.12C131.023 21.624 132.535 21.376 134.471 21.376C135.927 21.376 137.135 21.512 138.095 21.784C139.055 22.056 139.815 22.496 140.375 23.104C140.935 23.712 141.327 24.52 141.551 25.528C141.791 26.52 141.911 27.736 141.911 29.176C141.911 30.632 141.791 31.864 141.551 32.872C141.327 33.864 140.935 34.664 140.375 35.272C139.815 35.88 139.055 36.32 138.095 36.592C137.135 36.864 135.927 37 134.471 37C133.015 37 131.807 36.864 130.847 36.592C129.887 36.32 129.127 35.88 128.567 35.272C128.007 34.664 127.607 33.864 127.367 32.872C127.127 31.864 127.007 30.632 127.007 29.176ZM134.471 33.64C135.495 33.64 136.263 33.512 136.775 33.256C137.287 33 137.631 32.552 137.807 31.912C137.983 31.256 138.071 30.344 138.071 29.176C138.071 28.024 137.983 27.128 137.807 26.488C137.631 25.848 137.287 25.4 136.775 25.144C136.263 24.872 135.495 24.736 134.471 24.736C133.463 24.736 132.695 24.872 132.167 25.144C131.655 25.4 131.303 25.848 131.111 26.488C130.935 27.128 130.847 28.024 130.847 29.176C130.847 30.344 130.935 31.256 131.111 31.912C131.303 32.552 131.655 33 132.167 33.256C132.695 33.512 133.463 33.64 134.471 33.64ZM148.155 36.784H144.315V21.592H155.595V24.712H148.155V28.192H155.115V31.312H148.155V36.784Z" fill="#E9EAEE"/>
<path d="M10.9272 40.568H3.24719V10.184H17.7432C21.5512 10.184 24.3192 11.048 26.0472 12.776C27.8072 14.472 28.6872 16.984 28.6872 20.312C28.6872 22.808 28.0632 24.952 26.8152 26.744C25.5672 28.504 23.9192 29.608 21.8712 30.056L21.8232 30.2C22.6232 30.712 23.5032 31.56 24.4632 32.744C25.4232 33.928 26.3672 35.224 27.2952 36.632C28.2552 38.008 29.1032 39.304 29.8392 40.52V40.568H20.9112L15.7272 32.888C15.2792 32.216 14.9112 31.736 14.6232 31.448C14.3672 31.16 14.0472 30.984 13.6632 30.92C13.3112 30.856 12.7352 30.824 11.9352 30.824H10.9272V40.568ZM16.4952 16.424H10.9272V24.584H16.4952C18.0952 24.584 19.1992 24.264 19.8072 23.624C20.4472 22.984 20.7672 21.944 20.7672 20.504C20.7672 19.064 20.4472 18.024 19.8072 17.384C19.1992 16.744 18.0952 16.424 16.4952 16.424ZM62.0247 40.424V40.568H53.8647C53.6407 39.8 53.3687 38.92 53.0487 37.928C52.7607 36.936 52.4407 35.88 52.0887 34.76H41.7207C41.0807 37 40.4887 38.936 39.9447 40.568H31.7847V40.472L41.6247 10.184H52.1847L62.0247 40.424ZM46.8087 15.656C46.4887 17.288 46.0247 19.272 45.4167 21.608C44.8087 23.944 44.1687 26.328 43.4967 28.76H50.3607C49.6567 26.328 49.0007 23.944 48.3927 21.608C47.7847 19.272 47.3207 17.288 47.0007 15.656H46.8087ZM88.0594 33.992V40.04C86.5234 40.36 85.0194 40.6 83.5474 40.76C82.0754 40.92 80.3314 41 78.3154 41C75.7234 41 73.5314 40.776 71.7394 40.328C69.9794 39.88 68.5554 39.096 67.4674 37.976C66.4114 36.824 65.6434 35.208 65.1634 33.128C64.6834 31.048 64.4434 28.376 64.4434 25.112C64.4434 21.976 64.6834 19.4 65.1634 17.384C65.6434 15.368 66.4114 13.816 67.4674 12.728C68.5554 11.608 69.9794 10.84 71.7394 10.424C73.5314 9.976 75.7234 9.752 78.3154 9.752C80.3314 9.752 82.0754 9.832 83.5474 9.992C85.0194 10.12 86.5234 10.36 88.0594 10.712V16.952L87.9154 17.048C86.5714 16.728 85.2754 16.504 84.0274 16.376C82.7794 16.216 81.2434 16.136 79.4194 16.136C77.9474 16.136 76.7314 16.248 75.7714 16.472C74.8434 16.664 74.1074 17.064 73.5634 17.672C73.0194 18.28 72.6354 19.176 72.4114 20.36C72.2194 21.544 72.1234 23.128 72.1234 25.112C72.1234 27.192 72.2194 28.872 72.4114 30.152C72.6354 31.4 73.0194 32.344 73.5634 32.984C74.1074 33.624 74.8434 34.056 75.7714 34.28C76.7314 34.504 77.9474 34.616 79.4194 34.616C81.2114 34.616 82.7314 34.568 83.9794 34.472C85.2594 34.344 86.5394 34.12 87.8194 33.8L88.0594 33.992ZM92.1222 40.568V10.184H114.682V16.424H99.8022V22.184H112.714V28.424H99.8022V34.328H114.682V40.568H92.1222Z" fill="#D50013"/>
</svg>
