<svg width="22" height="22" viewBox="0 0 22 22" fill="none" xmlns="http://www.w3.org/2000/svg">
<path d="M7.15682 3.3092V2H2.00994C2.00355 2.14534 2 2.29126 2 2.43717C2 6.74845 6.74394 11.564 11 13.5714" stroke="#757575" stroke-miterlimit="10" stroke-linecap="round" stroke-linejoin="round"/>
<path d="M14.8432 3.3092V2H19.9901C19.9964 2.14534 20 2.29126 20 2.43717C20 6.74845 15.2561 11.564 11 13.5714" stroke="#757575" stroke-miterlimit="10" stroke-linecap="round" stroke-linejoin="round"/>
<path d="M14.375 18.4586C13.8929 17.7579 13.0664 17.4286 13.0664 17.4286H11H8.9337C8.9337 17.4286 8.10717 17.7579 7.62503 18.4586C7.14288 19.1592 7.14288 20 7.14288 20H11H14.8572C14.8572 20 14.8572 19.1592 14.375 18.4586Z" stroke="#757575" stroke-miterlimit="10"/>
<path d="M11 13.5714L11 17.4286" stroke="#757575" stroke-linejoin="round"/>
<path d="M13 8.50012L7.5 11.0001C8 11.5001 10 13.0001 10.9998 13.5713C10.9998 13.5713 16.1426 10.8106 16.1426 8.16029C16.1426 5.50998 16.1426 7.00012 16.1426 7.00012L13 8.50012Z" fill="#D50013"/>
<path d="M11 4.57141H5.85712C5.85712 4.57141 5.85712 5.51006 5.85712 8.16037C5.85712 10.8107 11 13.5714 11 13.5714C11 13.5714 16.1428 10.8107 16.1428 8.16037C16.1428 5.51006 16.1428 4.57141 16.1428 4.57141H11Z" stroke="#757575" stroke-miterlimit="10"/>
</svg>
