<svg width="15" height="15" viewBox="0 0 15 15" fill="none" xmlns="http://www.w3.org/2000/svg">
<path fill-rule="evenodd" clip-rule="evenodd" d="M13.8134 5.5355C14.0824 5.57517 14.3316 5.38222 14.37 5.10454L14.9962 0.57953C15.0346 0.301853 14.8477 0.0445933 14.5787 0.00492503C14.3097 -0.0347432 14.0605 0.158202 14.0221 0.435879L13.5976 3.50325C12.2843 1.44569 9.99453 0.0798956 7.38584 0.0798956C3.30164 0.0798956 0 3.42549 0 7.541C0 11.6565 3.30164 15.0021 7.38584 15.0021C10.736 15.0021 13.5596 12.7504 14.4662 9.6711C14.5442 9.4062 14.3926 9.12823 14.1277 9.05025C13.8628 8.97226 13.5849 9.12378 13.5069 9.38869C12.7204 12.0603 10.2743 14.0021 7.38584 14.0021C3.86415 14.0021 1 11.1145 1 7.541C1 3.96749 3.86415 1.0799 7.38584 1.0799C9.7764 1.0799 11.8636 2.40947 12.9585 4.38336L9.56912 3.88351C9.30013 3.84384 9.05092 4.03679 9.01249 4.31446C8.97407 4.59214 9.16097 4.8494 9.42996 4.88907L13.8134 5.5355Z" fill="#E9EAEE"/>
</svg>
