<svg width="40" height="48" viewBox="0 0 40 48" fill="none" xmlns="http://www.w3.org/2000/svg">
<path fill-rule="evenodd" clip-rule="evenodd" d="M13.4438 18.0979L9.01443 25.202C10.9629 25.0647 12.8586 24.0156 14.0491 22.2027C14.9606 20.8146 15.3005 19.2208 15.1229 17.7154L13.4453 18.0976L13.4438 18.0979Z" fill="#BA101F"/>
<path fill-rule="evenodd" clip-rule="evenodd" d="M14.578 17.8394C14.892 19.227 14.6533 20.761 13.793 22.0712C12.7679 23.6323 11.1055 24.5024 9.42533 24.5418L8.24033 26.4426C13.5751 24.6338 16.2432 23.7292 16.2432 23.7292C17.3473 19.2979 17.8991 17.0828 17.8991 17.0828L14.578 17.8394Z" fill="#86000C"/>
<path fill-rule="evenodd" clip-rule="evenodd" d="M23.6126 28.5567C22.4221 30.3696 22.207 32.535 22.8464 34.3914L27.6038 27.5052L27.2947 25.8033C25.849 26.2291 24.525 27.1692 23.6129 28.5582L23.6126 28.5567Z" fill="#BA101F"/>
<path fill-rule="evenodd" clip-rule="evenodd" d="M23.8327 28.7403C24.6931 27.4301 26.0021 26.607 27.3943 26.3528L26.7824 22.9837C26.7824 22.9837 24.9734 24.3637 21.3547 27.1246C21.3547 27.1246 21.5756 29.9469 22.0152 35.5927L23.2882 33.7503C22.6637 32.18 22.8076 30.3014 23.8327 28.7403Z" fill="#86000C"/>
<path fill-rule="evenodd" clip-rule="evenodd" d="M17.6916 28.1895L18.0048 27.7405L17.3527 27.6414L17.0032 27.0752L16.7202 27.5443C15.334 27.3345 14.6464 27.2312 14.6583 27.235C11.2223 28.4371 8.94935 33.4518 7.83947 42.2791L7.83705 42.2968L7.8523 42.2876C15.4199 37.7499 19.0665 33.6476 18.7912 29.9802C18.8 29.9888 18.4328 29.3915 17.6906 28.1889L17.6916 28.1895Z" fill="#CC3300"/>
<path fill-rule="evenodd" clip-rule="evenodd" d="M17.7758 27.8468L18.0233 27.492L17.5087 27.4139L17.2333 26.9673L17.0098 27.3379C15.9159 27.1718 15.3733 27.0903 15.3828 27.0938C12.6711 28.0427 10.8781 31.9998 10.0016 38.9664L10.0002 38.9807L10.0117 38.9731C15.9835 35.3924 18.8612 32.1544 18.6442 29.2602C18.6502 29.267 18.3608 28.7958 17.7758 27.8468Z" fill="#FF9933"/>
<path fill-rule="evenodd" clip-rule="evenodd" d="M17.9879 27.3145L18.1701 27.0531L17.7906 26.9957L17.5882 26.6666L17.4234 26.9396C16.618 26.8173 16.2178 26.7573 16.2249 26.7606C14.2276 27.4592 12.9076 30.3734 12.2617 35.5038L12.2603 35.5139L12.269 35.5087C16.6669 32.8718 18.7866 30.4875 18.6267 28.356C18.6316 28.3606 18.4186 28.0134 17.9879 27.3145Z" fill="#FAE861"/>
<path fill-rule="evenodd" clip-rule="evenodd" d="M18.0172 27.0862L18.1433 26.9063L17.8823 26.8668L17.7428 26.6403L17.6296 26.8287C17.0743 26.7443 16.7995 26.704 16.8038 26.7054C15.4286 27.1863 14.5184 29.1937 14.0741 32.7283L14.0731 32.7359L14.0796 32.7319C17.1083 30.9155 18.5683 29.2733 18.4588 27.8047C18.4624 27.8072 18.3151 27.5685 18.019 27.0874L18.0172 27.0862Z" fill="#FFFFCC"/>
<path fill-rule="evenodd" clip-rule="evenodd" d="M17.9155 27.6808L17.5123 27.413L17.4976 27.4032L17.0944 27.1354L15.2149 25.8869C15.0303 26.3345 14.8536 26.79 14.6857 27.2542L16.5605 28.5037L16.7154 28.6065L16.8757 28.7131L18.7544 29.9568C19.1129 29.6192 19.4601 29.2769 19.7975 28.9295L17.918 27.681L17.9167 27.683L17.9155 27.6808Z" fill="#666666"/>
<path fill-rule="evenodd" clip-rule="evenodd" d="M18.689 26.737L18.1804 26.3992L18.1612 26.3864L17.6526 26.0486L15.285 24.4731C15.0518 25.0388 14.8288 25.6128 14.6175 26.1972L16.9792 27.7715L17.1744 27.9012L17.3769 28.0357L19.7437 29.6023C20.1951 29.1774 20.6325 28.7458 21.0582 28.308L18.6881 26.7364L18.689 26.737Z" fill="#333333"/>
<path fill-rule="evenodd" clip-rule="evenodd" d="M19.1906 26.1715L18.5931 25.7746L18.5711 25.76L17.9736 25.3631L15.1915 23.5151C15.0429 23.988 14.9061 24.4728 14.7828 24.9693L17.5584 26.8172L17.7875 26.9693L18.0249 27.127L20.8043 28.9691C21.2083 28.6604 21.598 28.3436 21.9742 28.0191L19.1921 26.1711L19.1909 26.1731L19.1906 26.1715Z" fill="#1A1A1A"/>
<path fill-rule="evenodd" clip-rule="evenodd" d="M26.0417 12.3226L25.3792 11.8825C25.371 11.8729 25.3624 11.8658 25.3524 11.8591C25.3463 11.8523 25.3396 11.8465 25.3323 11.8416L25.3295 11.8398C25.3219 11.8113 25.3053 11.7865 25.2803 11.7685C25.2709 11.7567 25.2612 11.7475 25.2483 11.739C25.2441 11.7334 25.2392 11.7288 25.2344 11.7242C25.225 11.7124 25.215 11.7016 25.204 11.6943L25.2076 11.6967C25.1997 11.6887 25.1909 11.6801 25.1824 11.6731C25.1648 11.6517 25.1464 11.6257 25.1235 11.6105L25.0401 11.5551C25.0301 11.5443 25.0198 11.5319 25.0091 11.5221L24.9857 11.4996C24.9736 11.486 24.9632 11.4737 24.9477 11.4633L24.9284 11.4505C24.9096 11.4311 24.8907 11.4117 24.8713 11.3932C24.8615 11.384 24.8524 11.3779 24.8414 11.3706C24.8305 11.3592 24.8214 11.349 24.8085 11.3405L24.7792 11.321C24.7683 11.3096 24.7592 11.2994 24.7463 11.2909L24.7317 11.2812C24.7207 11.2698 24.7116 11.2596 24.6988 11.2511L24.6805 11.2389C24.6662 11.2266 24.6513 11.2112 24.6366 11.2015L24.6219 11.1917C24.611 11.1803 24.6019 11.1701 24.5891 11.1616L24.393 11.0313C24.3836 11.0196 24.3729 11.0098 24.361 11.0018L24.3427 10.9897C24.2804 10.9483 24.1953 10.9677 24.1523 11.033C24.1094 11.0984 24.1245 11.1816 24.1837 11.2237C24.1922 11.2349 24.202 11.2441 24.2139 11.252L24.4219 11.3902C24.4328 11.4016 24.4419 11.4118 24.4548 11.4203L24.4731 11.4325C24.4874 11.4447 24.5023 11.4601 24.5169 11.4699L24.5316 11.4796C24.5425 11.491 24.5516 11.5012 24.5645 11.5097L24.5791 11.5195C24.5901 11.5309 24.5992 11.5411 24.612 11.5496L24.6413 11.5691C24.6562 11.5845 24.6659 11.5937 24.6834 11.6053L24.6961 11.6179L24.7405 11.6626C24.7514 11.674 24.7649 11.6815 24.7777 11.69C24.7889 11.703 24.8014 11.7141 24.8142 11.7267C24.8306 11.7459 24.8484 11.7688 24.8695 11.7828L24.9511 11.8369C24.9677 11.8577 24.984 11.8809 25.0063 11.8971C25.02 11.9103 25.0272 11.9234 25.0424 11.9363C25.0467 11.9419 25.0518 11.948 25.0567 11.9527C25.0643 11.9632 25.0731 11.9718 25.0834 11.9801C25.0949 11.9987 25.1067 12.0107 25.1241 12.0223C25.1337 12.0438 25.1552 12.0692 25.1738 12.0829C25.1817 12.0909 25.1896 12.0989 25.1988 12.105L25.8852 12.5609C25.9475 12.6023 26.0326 12.5829 26.0755 12.5176C26.1184 12.4522 26.1028 12.3659 26.0404 12.3245L26.0417 12.3226Z" fill="#1B51A1"/>
<path fill-rule="evenodd" clip-rule="evenodd" d="M28.8173 12.1308L29.4548 11.2441L28.2177 11.0919L27.5928 10.0072L27.0322 10.945L23.6816 10.532C19.204 13.7772 16.2526 18.2639 14.8263 23.9915L17.9852 26.0954C18.1621 26.2129 18.339 26.3303 18.5158 26.4478L21.6798 28.544C26.3581 24.9751 29.3013 20.4829 30.5113 15.0687L28.8173 12.1308ZM25.8876 12.5579L25.2012 12.102C25.1921 12.0959 25.1835 12.0888 25.1763 12.0799C25.157 12.0671 25.137 12.0414 25.1266 12.0192C25.1092 12.0077 25.0973 11.9957 25.0859 11.977C25.0749 11.9697 25.0667 11.9601 25.0591 11.9496C25.0534 11.9444 25.0491 11.9388 25.0449 11.9332C25.029 11.9213 25.0224 11.9073 25.0088 11.894C24.9858 11.8788 24.9711 11.8552 24.9535 11.8339L24.8719 11.7797C24.8509 11.7657 24.8339 11.7434 24.8166 11.7236C24.8039 11.711 24.7923 11.7006 24.7802 11.687C24.7664 11.6779 24.7545 11.6699 24.7429 11.6595L24.6986 11.6148L24.6858 11.6022C24.6684 11.5906 24.6587 11.5814 24.6438 11.566L24.6144 11.5465C24.6016 11.538 24.5925 11.5278 24.5816 11.5164L24.5669 11.5067C24.5541 11.4982 24.545 11.488 24.534 11.4766L24.5194 11.4668C24.5038 11.4565 24.4889 11.4411 24.4755 11.4294L24.4572 11.4172C24.4444 11.4087 24.4353 11.3985 24.4243 11.3871L24.2163 11.2489C24.2044 11.241 24.1947 11.2318 24.1862 11.2206C24.127 11.1785 24.1125 11.0944 24.1548 11.03C24.1971 10.9656 24.2828 10.9452 24.3451 10.9866L24.3635 10.9988C24.3754 11.0067 24.386 11.0165 24.3954 11.0283L24.5915 11.1585C24.6043 11.1671 24.6135 11.1773 24.6244 11.1887L24.639 11.1984C24.6546 11.2088 24.6695 11.2242 24.6829 11.2358L24.7012 11.248C24.7141 11.2565 24.7232 11.2667 24.7341 11.2781L24.7488 11.2879C24.7616 11.2964 24.7707 11.3066 24.7816 11.318L24.811 11.3374C24.8238 11.346 24.8329 11.3562 24.8438 11.3676C24.8548 11.3749 24.864 11.381 24.8737 11.3902C24.8926 11.4096 24.9114 11.429 24.9309 11.4475L24.9501 11.4602C24.9657 11.4706 24.976 11.483 24.9881 11.4965L25.0115 11.519C25.0222 11.5288 25.0325 11.5412 25.0425 11.552L25.1259 11.6074C25.1488 11.6226 25.1673 11.6487 25.1848 11.67C25.194 11.6761 25.2022 11.6857 25.2101 11.6937L25.2064 11.6912C25.2183 11.6992 25.2283 11.71 25.2368 11.7211C25.2423 11.7248 25.2465 11.7303 25.2508 11.7359C25.2636 11.7444 25.274 11.7527 25.2827 11.7654C25.3075 11.7818 25.325 11.8073 25.3332 11.8348L25.336 11.8367C25.342 11.8435 25.3487 11.8493 25.3548 11.8561C25.3649 11.8628 25.374 11.8689 25.3816 11.8794L26.0441 12.3195C26.1065 12.3609 26.1221 12.4472 26.0792 12.5126C26.0363 12.578 25.9512 12.5974 25.8889 12.556L25.8876 12.5579Z" fill="#BA101F"/>
<path fill-rule="evenodd" clip-rule="evenodd" d="M30.0258 11.6232L28.7886 11.471L28.1637 10.3864L27.6032 11.3242L24.2525 10.9112C19.775 14.1564 16.8235 18.6431 15.3972 24.3707L17.5027 25.772L26.9615 11.3674L29.5402 13.0802L29.7088 13.068L29.3876 12.5109L30.0251 11.6242L30.0258 11.6232Z" fill="#86000C"/>
<path fill-rule="evenodd" clip-rule="evenodd" d="M26.9009 10.0765L27.3798 10.1365L27.1271 9.698L26.9009 10.0765Z" fill="#588CDB"/>
<path fill-rule="evenodd" clip-rule="evenodd" d="M28.3515 11.8215L28.989 10.9348L27.7519 10.7826L27.6213 10.5565L27.2412 11.0853L28.9342 14.0226C27.7245 19.4385 24.7804 23.93 20.1037 27.4985L20.0734 27.4785L21.2134 28.2357C25.8916 24.6668 28.8348 20.1746 30.044 14.7598L28.3509 11.8225L28.3515 11.8215Z" fill="#FF4859"/>
<path fill-rule="evenodd" clip-rule="evenodd" d="M27.7513 12.6377L27.7624 13.2442C25.4777 17.946 22.5318 22.4364 18.9236 26.7146L18.634 26.5223L19.4789 27.0835C24.1571 23.5146 27.1003 19.0225 28.3104 13.6082L27.7513 12.6377Z" fill="#FF4859"/>
<path d="M24.0449 18.1775C25.2914 18.8584 26.8812 18.3551 27.5959 17.0533C28.3106 15.7515 27.8795 14.1441 26.6331 13.4632C25.3867 12.7822 23.7968 13.2856 23.0821 14.5874C22.3674 15.8892 22.7985 17.4965 24.0449 18.1775Z" fill="#E6E6E6"/>
<path d="M24.548 17.4939C25.4363 17.9056 26.5108 17.4895 26.9481 16.5647C27.3853 15.6398 27.0197 14.5564 26.1315 14.1447C25.2433 13.7331 24.1687 14.1492 23.7315 15.074C23.2942 15.9989 23.6598 17.0823 24.548 17.4939Z" fill="#808080"/>
<path d="M25.0262 17.3294C25.8357 17.4741 26.6322 16.9154 26.8052 16.0814C26.9781 15.2474 26.4621 14.4541 25.6525 14.3094C24.843 14.1647 24.0466 14.7234 23.8736 15.5574C23.7006 16.3914 24.2167 17.1847 25.0262 17.3294Z" fill="black"/>
<path fill-rule="evenodd" clip-rule="evenodd" d="M27.5294 15.6673C27.3936 15.6613 27.2731 15.7704 27.2632 15.9101C27.2523 16.0492 27.3538 16.1677 27.4911 16.1734C27.627 16.1794 27.7468 16.0712 27.7574 15.9305C27.7683 15.7914 27.6668 15.6729 27.5294 15.6673Z" fill="black"/>
<path fill-rule="evenodd" clip-rule="evenodd" d="M27.2723 16.8092C27.1594 16.7342 27.0054 16.77 26.9284 16.8872C26.8513 17.0045 26.88 17.1616 26.992 17.236C27.1041 17.3104 27.259 17.2753 27.336 17.158C27.413 17.0407 27.3843 16.8836 27.2723 16.8092Z" fill="black"/>
<path fill-rule="evenodd" clip-rule="evenodd" d="M26.4958 17.6893C26.4369 17.566 26.2893 17.5177 26.1655 17.5818C26.0426 17.6464 25.9898 17.7991 26.048 17.9234C26.1068 18.0467 26.2544 18.095 26.3782 18.0309C26.5012 17.9662 26.5539 17.8135 26.4958 17.6893Z" fill="black"/>
<path fill-rule="evenodd" clip-rule="evenodd" d="M25.1798 17.8064C25.044 17.8004 24.9242 17.9086 24.9136 18.0493C24.9026 18.1884 25.0042 18.3069 25.1415 18.3125C25.2774 18.3185 25.3972 18.2104 25.4078 18.0697C25.4187 17.9306 25.3172 17.8121 25.1798 17.8064Z" fill="black"/>
<path fill-rule="evenodd" clip-rule="evenodd" d="M24.2357 17.5011C24.1228 17.4261 23.9687 17.4618 23.8917 17.5791C23.8147 17.6964 23.8434 17.8535 23.9554 17.9279C24.0674 18.0023 24.2224 17.9672 24.2994 17.8499C24.3764 17.7326 24.3477 17.5755 24.2357 17.5011Z" fill="black"/>
<path fill-rule="evenodd" clip-rule="evenodd" d="M23.586 16.7474C23.5271 16.6241 23.3796 16.5758 23.2557 16.6399C23.1328 16.7046 23.08 16.8572 23.1382 16.9815C23.197 17.1048 23.3446 17.1531 23.4684 17.089C23.5914 17.0243 23.6442 16.8716 23.586 16.7474Z" fill="black"/>
<path fill-rule="evenodd" clip-rule="evenodd" d="M23.1774 15.4849C23.0415 15.4789 22.9217 15.5871 22.9111 15.7277C22.9002 15.8668 23.0017 15.9853 23.1391 15.991C23.2749 15.997 23.3947 15.8888 23.4054 15.7482C23.4163 15.6091 23.3147 15.4906 23.1774 15.4849Z" fill="black"/>
<path fill-rule="evenodd" clip-rule="evenodd" d="M23.6764 14.4208C23.5634 14.3458 23.4094 14.3815 23.3324 14.4988C23.2554 14.6161 23.2841 14.7732 23.3961 14.8476C23.5081 14.922 23.663 14.8869 23.7401 14.7696C23.8171 14.6523 23.7884 14.4952 23.6764 14.4208Z" fill="black"/>
<path fill-rule="evenodd" clip-rule="evenodd" d="M24.6203 13.7342C24.5615 13.6109 24.4139 13.5626 24.29 13.6267C24.1671 13.6914 24.1143 13.8441 24.1725 13.9683C24.2313 14.0916 24.3789 14.1399 24.5027 14.0758C24.6257 14.0111 24.6785 13.8585 24.6203 13.7342Z" fill="black"/>
<path fill-rule="evenodd" clip-rule="evenodd" d="M20.7958 20.4922C19.8638 22.18 18.9327 23.8685 18.0014 25.5554C17.0701 27.2423 16.1387 28.9292 15.2083 30.6167L15.7517 30.9776C16.9286 29.4539 18.1065 27.9307 19.2834 26.407C20.4603 24.8832 21.6379 23.3585 22.8164 21.8344L20.7958 20.4922Z" fill="#FF4859"/>
<path fill-rule="evenodd" clip-rule="evenodd" d="M21.4226 20.9087C20.4146 22.546 19.4065 24.1833 18.3991 25.8197C17.3917 27.4561 16.3843 29.0924 15.3769 30.7288L15.5831 30.8658C16.684 29.2915 17.7849 27.7172 18.8857 26.1429C19.9866 24.5687 21.0881 22.9934 22.1896 21.4182L21.4226 20.9087Z" fill="#E4EFFF"/>
<path fill-rule="evenodd" clip-rule="evenodd" d="M30.5195 7.79058L30.1328 7.53371C28.0112 8.0628 25.9918 8.97167 24.0746 10.2619C25.6939 12.6159 29.3572 14.2223 30.6037 14.5989C31.0309 12.3189 31.0698 10.0931 30.7202 7.92389L30.5185 7.78997L30.5195 7.79058Z" fill="#999999"/>
<path fill-rule="evenodd" clip-rule="evenodd" d="M26.7123 13.7291C26.5993 13.6541 26.4453 13.6899 26.3683 13.8072C26.2913 13.9244 26.32 14.0815 26.432 14.1559C26.544 14.2304 26.6989 14.1952 26.7759 14.0779C26.853 13.9607 26.8243 13.8035 26.7123 13.7291Z" fill="black"/>
<path fill-rule="evenodd" clip-rule="evenodd" d="M27.5288 14.6754C27.47 14.5521 27.3224 14.5038 27.1986 14.5678C27.0757 14.6325 27.0229 14.7852 27.0811 14.9095C27.1399 15.0327 27.2875 15.0811 27.4113 15.017C27.5342 14.9523 27.587 14.7996 27.5288 14.6754Z" fill="black"/>
<path fill-rule="evenodd" clip-rule="evenodd" d="M25.5271 13.3457C25.3913 13.3397 25.2715 13.4479 25.2608 13.5886C25.2499 13.7277 25.3515 13.8462 25.4888 13.8518C25.6247 13.8578 25.7445 13.7497 25.7551 13.609C25.766 13.4699 25.6636 13.3508 25.5271 13.3457Z" fill="black"/>
<path fill-rule="evenodd" clip-rule="evenodd" d="M32.4583 4.73628L32.3657 4.6748C31.9791 5.15935 31.591 5.64425 31.2043 6.1288L30.1636 7.43105L30.8033 7.85592L31.5855 6.38202C31.8769 5.83417 32.1679 5.28474 32.4583 4.73628Z" fill="#1A1A1A"/>
<path fill-rule="evenodd" clip-rule="evenodd" d="M30.2324 7.70891C28.2113 8.31159 26.3098 9.31128 24.6378 10.6511C25.2619 11.7228 26.352 12.2895 27.4853 12.7883C27.4853 12.7883 28.478 11.1463 30.4624 7.86169L30.2324 7.70891Z" fill="#4D4D4D"/>
<path fill-rule="evenodd" clip-rule="evenodd" d="M30.6191 7.85716C30.2302 9.8284 29.6312 11.7568 28.8331 13.6095C29.2225 13.8322 29.6213 14.0405 30.0281 14.2307C30.4847 12.1926 30.7237 10.119 30.7403 8.04536C30.6611 7.91954 30.6207 7.85681 30.6207 7.85681L30.6191 7.85716Z" fill="#CCCCCC"/>
<path d="M30.9081 7.86392L30.1136 7.33618L29.9788 7.54157L30.7733 8.06932L30.9081 7.86392Z" fill="#CCCCCC"/>
<path fill-rule="evenodd" clip-rule="evenodd" d="M24.1728 10.1961C24.009 10.3053 23.8447 10.4171 23.682 10.5327C24.8822 11.9498 28.7438 14.5149 30.5108 15.0687C30.5517 14.8722 30.5904 14.677 30.626 14.4825C28.853 13.8295 25.467 11.5803 24.1738 10.1967L24.1728 10.1961Z" fill="black"/>
<path fill-rule="evenodd" clip-rule="evenodd" d="M20.6024 15.6558C20.5553 15.6245 20.4915 15.6389 20.4592 15.6881C20.4269 15.7373 20.4387 15.802 20.4858 15.8333C20.5329 15.8646 20.5967 15.8502 20.629 15.801C20.6614 15.7518 20.6495 15.6871 20.6024 15.6558Z" fill="#99C2FF"/>
<path fill-rule="evenodd" clip-rule="evenodd" d="M21.0325 18.0007C20.951 17.9465 20.8407 17.9723 20.7853 18.0567C20.7299 18.141 20.7499 18.2548 20.8305 18.3083C20.9111 18.3619 21.0224 18.3367 21.0784 18.2514C21.1344 18.1661 21.1132 18.0542 21.0325 18.0007Z" fill="#99C2FF"/>
<path fill-rule="evenodd" clip-rule="evenodd" d="M23.2725 20.3784C23.191 20.3242 23.0807 20.35 23.0253 20.4343C22.9699 20.5187 22.9905 20.6315 23.0711 20.685C23.1518 20.7386 23.263 20.7134 23.3184 20.6291C23.3738 20.5447 23.3531 20.4319 23.2725 20.3784Z" fill="#99C2FF"/>
<path fill-rule="evenodd" clip-rule="evenodd" d="M25.7697 19.583C25.7143 19.5462 25.638 19.5634 25.6 19.6213C25.562 19.6792 25.5762 19.7565 25.6316 19.7933C25.687 19.8301 25.7633 19.8128 25.8013 19.755C25.8393 19.6971 25.8251 19.6198 25.7697 19.583Z" fill="#99C2FF"/>
<path fill-rule="evenodd" clip-rule="evenodd" d="M18.3556 20.9809C18.3002 20.9441 18.224 20.9613 18.186 21.0192C18.1479 21.0771 18.1621 21.1544 18.2175 21.1912C18.2729 21.228 18.3492 21.2108 18.3872 21.1529C18.4252 21.095 18.411 21.0177 18.3556 20.9809Z" fill="#99C2FF"/>
<path fill-rule="evenodd" clip-rule="evenodd" d="M22.3298 25.0239C22.2744 24.9871 22.1981 25.0043 22.1601 25.0622C22.1221 25.1201 22.1363 25.1974 22.1916 25.2342C22.247 25.271 22.3233 25.2538 22.3613 25.1959C22.3993 25.138 22.3851 25.0607 22.3298 25.0239Z" fill="#99C2FF"/>
<path fill-rule="evenodd" clip-rule="evenodd" d="M29.4577 12.4057C29.4023 12.3689 29.326 12.3861 29.288 12.444C29.25 12.5019 29.2642 12.5792 29.3196 12.616C29.375 12.6528 29.4512 12.6356 29.4893 12.5777C29.5273 12.5198 29.5131 12.4425 29.4577 12.4057Z" fill="#CCCCCC"/>
<path fill-rule="evenodd" clip-rule="evenodd" d="M13.7265 21.2565C13.645 21.2024 13.5346 21.2282 13.4793 21.3125C13.4239 21.3969 13.4445 21.5097 13.5251 21.5632C13.6057 21.6168 13.717 21.5916 13.7724 21.5072C13.8278 21.4229 13.8071 21.3101 13.7265 21.2565Z" fill="#99C2FF"/>
<path fill-rule="evenodd" clip-rule="evenodd" d="M24.7895 29.8268C24.708 29.7727 24.5976 29.7985 24.5423 29.8828C24.4869 29.9672 24.5075 30.08 24.5881 30.1335C24.6687 30.1871 24.78 30.1619 24.8354 30.0775C24.8908 29.9932 24.8701 29.8804 24.7895 29.8268Z" fill="#99C2FF"/>
<path fill-rule="evenodd" clip-rule="evenodd" d="M24.8627 28.0259C24.825 28.0009 24.7739 28.0124 24.748 28.0518C24.7221 28.0912 24.7316 28.1431 24.7693 28.1681C24.807 28.1932 24.8582 28.1816 24.8841 28.1422C24.91 28.1028 24.9004 28.051 24.8627 28.0259Z" fill="#99C2FF"/>
<path fill-rule="evenodd" clip-rule="evenodd" d="M26.2421 27.7754C26.2044 27.7504 26.1532 27.7619 26.1274 27.8013C26.1015 27.8407 26.111 27.8926 26.1487 27.9177C26.1864 27.9427 26.2376 27.9311 26.2635 27.8917C26.2894 27.8523 26.2798 27.8005 26.2421 27.7754Z" fill="#99C2FF"/>
<path fill-rule="evenodd" clip-rule="evenodd" d="M25.8227 26.3138C25.785 26.2887 25.7338 26.3003 25.7079 26.3397C25.6821 26.3791 25.6916 26.4309 25.7293 26.456C25.767 26.481 25.8182 26.4695 25.844 26.4301C25.8699 26.3907 25.8604 26.3388 25.8227 26.3138Z" fill="#99C2FF"/>
<path fill-rule="evenodd" clip-rule="evenodd" d="M19.397 28.6628C19.3155 28.6086 19.2052 28.6344 19.1498 28.7188C19.0944 28.8031 19.1151 28.9159 19.1957 28.9695C19.2763 29.023 19.3875 28.9978 19.4429 28.9135C19.4983 28.8291 19.4777 28.7163 19.397 28.6628Z" fill="#CCCCCC"/>
<path fill-rule="evenodd" clip-rule="evenodd" d="M28.2645 10.2319C28.183 10.1777 28.0726 10.2035 28.0172 10.2879C27.9618 10.3722 27.9825 10.485 28.0631 10.5386C28.1437 10.5921 28.255 10.5669 28.3103 10.4826C28.3657 10.3982 28.3451 10.2854 28.2645 10.2319Z" fill="#CCCCCC"/>
<path fill-rule="evenodd" clip-rule="evenodd" d="M12.146 23.6126C12.0825 23.5704 11.9965 23.5909 11.9534 23.6565C11.9103 23.7221 11.9263 23.8103 11.9889 23.8518C12.0514 23.8934 12.1383 23.8735 12.1814 23.8079C12.2245 23.7423 12.2085 23.6541 12.146 23.6126Z" fill="#99C2FF"/>
<path fill-rule="evenodd" clip-rule="evenodd" d="M13.3211 31.4451C13.2577 31.403 13.1717 31.4234 13.1286 31.489C13.0855 31.5546 13.1015 31.6428 13.164 31.6844C13.2265 31.7259 13.3135 31.706 13.3566 31.6404C13.3996 31.5748 13.3836 31.4866 13.3211 31.4451Z" fill="#FFFFCC"/>
<path fill-rule="evenodd" clip-rule="evenodd" d="M14.3315 35.2376C14.2681 35.1954 14.1821 35.2159 14.139 35.2815C14.0959 35.3471 14.1119 35.4353 14.1744 35.4768C14.2369 35.5184 14.3239 35.4985 14.3669 35.4329C14.41 35.3673 14.394 35.2791 14.3315 35.2376Z" fill="#FFFFCC"/>
<path fill-rule="evenodd" clip-rule="evenodd" d="M15.9297 34.4027C15.8956 34.3801 15.8493 34.3904 15.8261 34.4257C15.8029 34.461 15.8117 34.508 15.8457 34.5306C15.8797 34.5532 15.9261 34.5429 15.9493 34.5076C15.9725 34.4723 15.9637 34.4253 15.9297 34.4027Z" fill="#FFFFCC"/>
<path fill-rule="evenodd" clip-rule="evenodd" d="M11.1056 33.3534C11.0715 33.3308 11.0252 33.3411 11.002 33.3764C10.9788 33.4117 10.9876 33.4587 11.0216 33.4813C11.0556 33.5039 11.102 33.4936 11.1252 33.4583C11.1484 33.423 11.1396 33.376 11.1056 33.3534Z" fill="#FFFFCC"/>
<path fill-rule="evenodd" clip-rule="evenodd" d="M11.3858 36.1057C11.3224 36.0636 11.2364 36.0841 11.1933 36.1497C11.1502 36.2153 11.1662 36.3035 11.2287 36.345C11.2912 36.3865 11.3782 36.3667 11.4213 36.3011C11.4643 36.2355 11.4483 36.1473 11.3858 36.1057Z" fill="#FFFFCC"/>
<path fill-rule="evenodd" clip-rule="evenodd" d="M12.2995 38.2517C12.2361 38.2096 12.1501 38.2301 12.107 38.2957C12.0639 38.3613 12.0799 38.4495 12.1424 38.491C12.2049 38.5325 12.2919 38.5127 12.335 38.4471C12.378 38.3815 12.362 38.2933 12.2995 38.2517Z" fill="#FFFFCC"/>
<path fill-rule="evenodd" clip-rule="evenodd" d="M14.7863 38.2388C14.6854 38.1717 14.5475 38.203 14.478 38.3087C14.4086 38.4145 14.4341 38.5543 14.5351 38.6214C14.6361 38.6885 14.774 38.6572 14.8434 38.5515C14.9129 38.4457 14.8873 38.3059 14.7863 38.2388Z" fill="#CC3300"/>
<path fill-rule="evenodd" clip-rule="evenodd" d="M15.3169 37.8555C15.2507 37.8115 15.1606 37.8321 15.115 37.9015C15.0694 37.971 15.086 38.0624 15.1522 38.1063C15.2184 38.1503 15.3084 38.1298 15.354 38.0603C15.3996 37.9908 15.3831 37.8995 15.3169 37.8555Z" fill="#CC3300"/>
<path fill-rule="evenodd" clip-rule="evenodd" d="M7.26916 35.1863C7.20297 35.1423 7.11291 35.1629 7.0673 35.2324C7.02169 35.3018 7.03826 35.3932 7.10444 35.4372C7.17063 35.4811 7.26069 35.4606 7.3063 35.3911C7.35191 35.3216 7.33534 35.2303 7.26916 35.1863Z" fill="#CC3300"/>
<path fill-rule="evenodd" clip-rule="evenodd" d="M7.44543 39.034C7.37924 38.99 7.28918 39.0105 7.24357 39.08C7.19796 39.1495 7.21452 39.2408 7.28071 39.2848C7.34689 39.3288 7.43695 39.3082 7.48257 39.2388C7.52818 39.1693 7.51161 39.0779 7.44543 39.034Z" fill="#CC3300"/>
<path fill-rule="evenodd" clip-rule="evenodd" d="M10.0494 41.5547C9.91815 41.4675 9.73842 41.5082 9.64816 41.6457C9.5579 41.7832 9.59118 41.9654 9.72247 42.0526C9.85377 42.1398 10.0335 42.0991 10.1238 41.9616C10.214 41.8241 10.1807 41.6419 10.0494 41.5547Z" fill="#CC3300"/>
<path fill-rule="evenodd" clip-rule="evenodd" d="M10.7398 29.1648C10.6388 29.0977 10.501 29.129 10.4315 29.2347C10.3621 29.3405 10.3876 29.4803 10.4886 29.5474C10.5896 29.6145 10.7275 29.5832 10.7969 29.4775C10.8664 29.3717 10.8408 29.2319 10.7398 29.1648Z" fill="#CC3300"/>
<path fill-rule="evenodd" clip-rule="evenodd" d="M18.9397 32.1043C18.8387 32.0372 18.7008 32.0685 18.6313 32.1742C18.5619 32.2799 18.5874 32.4198 18.6884 32.4869C18.7894 32.5539 18.9273 32.5227 18.9968 32.4169C19.0662 32.3112 19.0407 32.1714 18.9397 32.1043Z" fill="#CC3300"/>
<path fill-rule="evenodd" clip-rule="evenodd" d="M8.52424 42.7143C8.44181 42.6595 8.32991 42.6857 8.2739 42.771C8.21789 42.8563 8.23882 42.9707 8.32034 43.0248C8.40187 43.079 8.51467 43.0534 8.57068 42.9681C8.62669 42.8828 8.60577 42.7684 8.52424 42.7143Z" fill="#CC3300"/>
<path fill-rule="evenodd" clip-rule="evenodd" d="M7.50912 43.113C7.45834 43.0792 7.38985 43.0947 7.355 43.1478C7.32016 43.2008 7.33291 43.2703 7.38368 43.304C7.43446 43.3377 7.50296 43.3222 7.5378 43.2692C7.57264 43.2161 7.5599 43.1467 7.50912 43.113Z" fill="#CC3300"/>
<path fill-rule="evenodd" clip-rule="evenodd" d="M14.1518 19.5208C14.1109 19.4936 14.0546 19.5064 14.0265 19.549C13.9985 19.5917 14.009 19.6489 14.0499 19.676C14.0907 19.7031 14.1471 19.6904 14.1751 19.6477C14.2031 19.605 14.1926 19.5479 14.1518 19.5208Z" fill="#99C2FF"/>
<path fill-rule="evenodd" clip-rule="evenodd" d="M17.8154 23.8003C17.7745 23.7732 17.7182 23.7859 17.6901 23.8286C17.6621 23.8713 17.6726 23.9284 17.7134 23.9555C17.7543 23.9827 17.8106 23.9699 17.8387 23.9273C17.8667 23.8846 17.8562 23.8274 17.8154 23.8003Z" fill="#99C2FF"/>
<path fill-rule="evenodd" clip-rule="evenodd" d="M19.0184 32.782C18.9541 32.7393 18.8671 32.7591 18.8228 32.8266C18.7784 32.8942 18.7953 32.983 18.8588 33.0251C18.9222 33.0673 19.0107 33.0471 19.0544 32.9805C19.0981 32.9139 19.0818 32.8241 19.0184 32.782Z" fill="#CC3300"/>
<path fill-rule="evenodd" clip-rule="evenodd" d="M25.2401 14.8963C25.0009 14.7374 24.6728 14.8122 24.5074 15.064C24.3421 15.3159 24.4031 15.6478 24.6423 15.8066C24.8815 15.9655 25.2105 15.8914 25.3753 15.6405C25.54 15.3896 25.4802 15.0558 25.2401 14.8963Z" fill="#808080"/>
<path fill-rule="evenodd" clip-rule="evenodd" d="M25.6873 14.8439C25.6202 14.7993 25.5295 14.8208 25.4839 14.8903C25.4383 14.9598 25.4551 15.0527 25.5213 15.0967C25.5875 15.1406 25.6791 15.1197 25.7247 15.0503C25.7704 14.9808 25.7535 14.8879 25.6873 14.8439Z" fill="#808080"/>
</svg>
