<svg width="16" height="16" viewBox="0 0 16 16" fill="none" xmlns="http://www.w3.org/2000/svg">
<g clip-path="url(#clip0_9_281)">
<path d="M8.23676 1.30332C6.81698 1.71583 5.33435 2.66565 3.94975 4.05025C2.56514 5.43486 1.61532 6.91748 1.20281 8.33726C0.790306 9.75705 0.982462 10.9825 1.72236 11.7224L4.05581 14.0558C4.79571 14.7957 6.0293 14.9846 7.44091 14.5754C8.85252 14.1662 10.3433 13.213 11.7279 11.8284C13.1125 10.4438 14.0623 8.9612 14.4749 7.54142C14.8874 6.12163 14.6952 4.89622 13.9553 4.15632L11.6219 1.82287C10.882 1.08297 9.64837 0.894125 8.23676 1.30332ZM9.03314 9.84075L10.5888 11.3964C9.71894 12.2059 8.87572 12.7769 8.10334 13.1536L6.58173 11.632C7.4773 11.1424 8.3006 10.5414 9.03411 9.84172L9.03314 9.84075ZM9.74024 9.13364C10.4399 8.40014 11.0409 7.57683 11.5305 6.68126L13.0526 8.20336C12.6759 8.97574 12.1049 9.81896 11.2954 10.6888L9.74024 9.13364ZM4.76292 13.3487L3.86503 12.4508C4.29067 12.4314 4.70771 12.3613 5.10746 12.2419C5.27367 12.1933 5.44267 12.1352 5.60919 12.0737L7.08753 13.552C6.00681 13.8705 5.16593 13.7517 4.76292 13.3487ZM13.4515 7.18804L11.9732 5.7097C12.036 5.54185 12.0928 5.37418 12.1414 5.20796C12.2608 4.80821 12.3309 4.39117 12.3503 3.96553L13.2482 4.86343C13.6512 5.26643 13.77 6.10731 13.4515 7.18804Z" fill="#464749"/>
</g>
<defs>
<clipPath id="clip0_9_281">
<rect width="16" height="16" fill="white"/>
</clipPath>
</defs>
</svg>
