<svg width="16" height="16" viewBox="0 0 16 16" fill="none" xmlns="http://www.w3.org/2000/svg">
<path d="M9.68182 11.7143C9.68182 11.9403 9.61251 12.1613 9.48265 12.3492C9.35279 12.5372 9.16821 12.6836 8.95226 12.7701C8.73631 12.8566 8.49869 12.8793 8.26944 12.8352C8.04019 12.7911 7.82961 12.6822 7.66433 12.5224C7.49905 12.3626 7.38649 12.1589 7.34089 11.9372C7.29529 11.7156 7.31869 11.4858 7.40814 11.2769C7.49759 11.0681 7.64907 10.8896 7.84342 10.764C8.03777 10.6385 8.26626 10.5714 8.5 10.5714C8.81344 10.5714 9.11404 10.6918 9.33567 10.9062C9.5573 11.1205 9.68182 11.4112 9.68182 11.7143ZM15 6.28571V9.71429C15 11.3814 14.3152 12.9802 13.0962 14.159C11.8772 15.3378 10.2239 16 8.5 16C6.77609 16 5.12279 15.3378 3.90381 14.159C2.68482 12.9802 2 11.3814 2 9.71429V3.42857C2 3.12547 2.12451 2.83478 2.34615 2.62045C2.56778 2.40612 2.86838 2.28571 3.18182 2.28571C3.49526 2.28571 3.79586 2.40612 4.01749 2.62045C4.23912 2.83478 4.36364 3.12547 4.36364 3.42857V7.42857C4.36364 7.58012 4.42589 7.72547 4.53671 7.83263C4.64753 7.9398 4.79783 8 4.95455 8C5.11126 8 5.26156 7.9398 5.37238 7.83263C5.4832 7.72547 5.54545 7.58012 5.54545 7.42857V1.14286C5.54545 0.839753 5.66997 0.549062 5.8916 0.334735C6.11323 0.120408 6.41384 0 6.72727 0C7.04071 0 7.34131 0.120408 7.56294 0.334735C7.78458 0.549062 7.90909 0.839753 7.90909 1.14286V6.85714C7.90909 7.0087 7.97135 7.15404 8.08216 7.2612C8.19298 7.36837 8.34328 7.42857 8.5 7.42857C8.65672 7.42857 8.80702 7.36837 8.91784 7.2612C9.02865 7.15404 9.09091 7.0087 9.09091 6.85714V2.28571C9.09091 1.98261 9.21542 1.69192 9.43706 1.47759C9.65869 1.26327 9.95929 1.14286 10.2727 1.14286C10.5862 1.14286 10.8868 1.26327 11.1084 1.47759C11.33 1.69192 11.4545 1.98261 11.4545 2.28571V8C11.4545 8.15155 11.5168 8.2969 11.6276 8.40406C11.7384 8.51123 11.8887 8.57143 12.0455 8.57143C12.2022 8.57143 12.3525 8.51123 12.4633 8.40406C12.5741 8.2969 12.6364 8.15155 12.6364 8V6.28571C12.6364 5.98261 12.7609 5.69192 12.9825 5.47759C13.2041 5.26327 13.5047 5.14286 13.8182 5.14286C14.1316 5.14286 14.4322 5.26327 14.6539 5.47759C14.8755 5.69192 15 5.98261 15 6.28571ZM12.3099 11.5864C12.2582 11.4864 11.0173 9.14286 8.5 9.14286C5.98273 9.14286 4.74182 11.4864 4.69011 11.5864C4.66957 11.6261 4.65888 11.6699 4.65888 11.7143C4.65888 11.7587 4.66957 11.8024 4.69011 11.8421C4.74182 11.9421 5.98273 14.2857 8.5 14.2857C11.0173 14.2857 12.2582 11.9421 12.3099 11.8421C12.3304 11.8024 12.3411 11.7587 12.3411 11.7143C12.3411 11.6699 12.3304 11.6261 12.3099 11.5864Z" fill="#464749"/>
</svg>
