<svg width="15" height="12" viewBox="0 0 15 12" fill="none" xmlns="http://www.w3.org/2000/svg">
<path fill-rule="evenodd" clip-rule="evenodd" d="M14.3004 1.21881C14.3309 1.03383 14.3112 0.844052 14.2434 0.669258C14.1756 0.494464 14.0622 0.341049 13.9149 0.224996C13.7677 0.108943 13.592 0.0344992 13.4062 0.00942141C13.2204 -0.0156564 13.0313 0.00954907 12.8586 0.082412L0.907499 5.11444C0.0744182 5.46529 0.0317857 6.67018 0.907499 7.03361C1.77463 7.39524 2.6544 7.7258 3.54512 8.02464C4.36143 8.29441 5.25182 8.54391 5.96539 8.6145C6.16038 8.84793 6.40569 9.07298 6.6559 9.27845C7.03819 9.59295 7.49806 9.91654 7.97331 10.2268C8.9252 10.8489 9.98123 11.4436 10.6927 11.8308C11.5433 12.2921 12.5615 11.7609 12.7139 10.8335L14.3004 1.21881ZM2.24728 6.06704L12.8173 1.61648L11.3371 10.5903C10.6389 10.2108 9.63318 9.64257 8.7372 9.0569C8.32425 8.79177 7.92556 8.50506 7.54279 8.19796C7.44048 8.11439 7.34117 8.02721 7.24506 7.93657L10.0134 5.16896C10.1445 5.03791 10.2182 4.86013 10.2183 4.67474C10.2184 4.48934 10.1448 4.31151 10.0137 4.18037C9.88268 4.04923 9.70491 3.97552 9.51951 3.97546C9.33412 3.97539 9.15629 4.04898 9.02515 4.18002L5.99405 7.21112C5.48106 7.14543 4.76679 6.95533 3.98263 6.69674C3.39884 6.50226 2.82041 6.29205 2.24798 6.06634L2.24728 6.06704Z" fill="white"/>
</svg>
