<svg width="18" height="12" viewBox="0 0 18 12" fill="none" xmlns="http://www.w3.org/2000/svg">
<path d="M17.2666 5.94829C17.2666 5.90766 17.2666 5.8615 17.2648 5.80794C17.2629 5.65836 17.2592 5.4903 17.2555 5.31117C17.2406 4.79594 17.2146 4.28255 17.1736 3.79871C17.1178 3.13204 17.036 2.57618 16.9244 2.15882C16.8066 1.72327 16.5757 1.32604 16.2549 1.00683C15.934 0.687617 15.5344 0.45761 15.0959 0.339797C14.5695 0.199446 13.539 0.11265 12.0881 0.059095C11.398 0.0332409 10.6595 0.0166204 9.92103 0.00738678C9.66247 0.00369333 9.42252 0.00184672 9.20675 0H8.65987C8.4441 0.00184672 8.20414 0.00369333 7.94559 0.00738678C7.20712 0.0166204 6.46865 0.0332409 5.77855 0.059095C4.32765 0.114497 3.29529 0.201293 2.77073 0.339797C2.33212 0.457321 1.93232 0.68723 1.6114 1.00648C1.29049 1.32574 1.05972 1.72312 0.942238 2.15882C0.82877 2.57618 0.748785 3.13204 0.692982 3.79871C0.652059 4.28255 0.626017 4.79594 0.611136 5.31117C0.605556 5.4903 0.603696 5.65836 0.601836 5.80794C0.601836 5.8615 0.599976 5.90766 0.599976 5.94829V6.05171C0.599976 6.09234 0.599976 6.1385 0.601836 6.19206C0.603696 6.34164 0.607416 6.50969 0.611136 6.68883C0.626017 7.20406 0.652059 7.71745 0.692982 8.20129C0.748785 8.86796 0.83063 9.42382 0.942238 9.84118C1.18033 10.7258 1.87974 11.4238 2.77073 11.6602C3.29529 11.8006 4.32765 11.8873 5.77855 11.9409C6.46865 11.9668 7.20712 11.9834 7.94559 11.9926C8.20414 11.9963 8.4441 11.9982 8.65987 12H9.20675C9.42252 11.9982 9.66247 11.9963 9.92103 11.9926C10.6595 11.9834 11.398 11.9668 12.0881 11.9409C13.539 11.8855 14.5713 11.7987 15.0959 11.6602C15.9869 11.4238 16.6863 10.7276 16.9244 9.84118C17.0378 9.42382 17.1178 8.86796 17.1736 8.20129C17.2146 7.71745 17.2406 7.20406 17.2555 6.68883C17.2611 6.50969 17.2629 6.34164 17.2648 6.19206C17.2648 6.1385 17.2666 6.09234 17.2666 6.05171V5.94829ZM15.9274 6.04432C15.9274 6.0831 15.9274 6.12558 15.9255 6.17544C15.9236 6.31948 15.9199 6.4783 15.9162 6.65005C15.9032 7.14127 15.8771 7.6325 15.8381 8.08864C15.7878 8.68329 15.7172 9.17082 15.6297 9.49769C15.5144 9.92428 15.1759 10.2622 14.748 10.3749C14.3574 10.4783 13.3734 10.5614 12.036 10.6113C11.3589 10.6371 10.6297 10.6537 9.90243 10.663C9.64759 10.6667 9.41136 10.6685 9.19931 10.6685H8.66731L7.96419 10.663C7.23688 10.6537 6.50957 10.6371 5.83063 10.6113C4.4932 10.5596 3.50734 10.4783 3.11858 10.3749C2.69075 10.2604 2.35221 9.92428 2.23688 9.49769C2.14945 9.17082 2.07877 8.68329 2.02855 8.08864C1.98948 7.6325 1.9653 7.14127 1.95042 6.65005C1.94484 6.4783 1.94298 6.31764 1.94112 6.17544C1.94112 6.12558 1.93926 6.08126 1.93926 6.04432V5.95568C1.93926 5.9169 1.93926 5.87442 1.94112 5.82456C1.94298 5.68052 1.9467 5.5217 1.95042 5.34995C1.96344 4.85873 1.98948 4.3675 2.02855 3.91136C2.07877 3.31671 2.14945 2.82918 2.23688 2.50231C2.35221 2.07572 2.69075 1.73777 3.11858 1.62512C3.5092 1.5217 4.4932 1.4386 5.83063 1.38873C6.50771 1.36288 7.23688 1.34626 7.96419 1.33703C8.21902 1.33333 8.45526 1.33149 8.66731 1.33149H9.19931L9.90243 1.33703C10.6297 1.34626 11.357 1.36288 12.036 1.38873C13.3734 1.44044 14.3593 1.5217 14.748 1.62512C15.1759 1.73961 15.5144 2.07572 15.6297 2.50231C15.7172 2.82918 15.7878 3.31671 15.8381 3.91136C15.8771 4.3675 15.9013 4.85873 15.9162 5.34995C15.9218 5.5217 15.9236 5.68236 15.9255 5.82456C15.9255 5.87442 15.9274 5.91874 15.9274 5.95568V6.04432ZM7.2778 8.47461L11.5933 5.98153L7.2778 3.52539V8.47461Z" fill="white"/>
</svg>
